<svg width="44" height="44" viewBox="0 0 44 44" fill="none" xmlns="http://www.w3.org/2000/svg">
<path d="M22.0003 3.66675C32.1258 3.66675 40.3337 11.8746 40.3337 22.0001C40.3337 32.1256 32.1258 40.3334 22.0003 40.3334C11.8748 40.3334 3.66699 32.1256 3.66699 22.0001C3.66699 11.8746 11.8748 3.66675 22.0003 3.66675ZM22.2937 29.3334C20.5201 29.3314 18.7654 29.698 17.141 30.41C15.5166 31.122 14.0579 32.1638 12.8575 33.4694C15.4527 35.5442 18.6777 36.672 22.0003 36.6667C25.4696 36.6718 28.8275 35.4422 31.4732 33.1981C30.2792 31.9729 28.8516 30.9997 27.2749 30.3359C25.6982 29.6721 24.0044 29.3312 22.2937 29.3334ZM22.0003 7.33341C19.2725 7.33348 16.5987 8.09429 14.2795 9.53035C11.9603 10.9664 10.0875 13.0208 8.87158 15.4627C7.6557 17.9045 7.14489 20.6371 7.39658 23.3533C7.64826 26.0695 8.65246 28.6617 10.2963 30.8386C11.837 29.203 13.6963 27.9004 15.7597 27.0109C17.8231 26.1214 20.0467 25.664 22.2937 25.6667C24.46 25.6639 26.6056 26.0891 28.6072 26.9178C30.6088 27.7465 32.427 28.9624 33.9573 30.4958C35.5166 28.3015 36.4419 25.7203 36.6319 23.0352C36.8219 20.35 36.2692 17.6643 35.0344 15.2723C33.7996 12.8803 31.9303 10.8743 29.6313 9.47403C27.3323 8.07372 24.6922 7.33315 22.0003 7.33341ZM22.0003 9.16675C23.9452 9.16675 25.8105 9.93936 27.1858 11.3146C28.561 12.6899 29.3337 14.5552 29.3337 16.5001C29.3337 18.445 28.561 20.3103 27.1858 21.6855C25.8105 23.0608 23.9452 23.8334 22.0003 23.8334C20.0554 23.8334 18.1901 23.0608 16.8149 21.6855C15.4396 20.3103 14.667 18.445 14.667 16.5001C14.667 14.5552 15.4396 12.6899 16.8149 11.3146C18.1901 9.93936 20.0554 9.16675 22.0003 9.16675ZM22.0003 12.8334C21.0279 12.8334 20.0952 13.2197 19.4076 13.9074C18.72 14.595 18.3337 15.5276 18.3337 16.5001C18.3337 17.4725 18.72 18.4052 19.4076 19.0928C20.0952 19.7804 21.0279 20.1667 22.0003 20.1667C22.9728 20.1667 23.9054 19.7804 24.5931 19.0928C25.2807 18.4052 25.667 17.4725 25.667 16.5001C25.667 15.5276 25.2807 14.595 24.5931 13.9074C23.9054 13.2197 22.9728 12.8334 22.0003 12.8334Z" fill="#01ABA2"/>
</svg>
