<svg width="37" height="37" viewBox="0 0 37 37" fill="none" xmlns="http://www.w3.org/2000/svg">
<path d="M29.336 29.336C30.3085 29.336 31.2413 29.7223 31.929 30.41C32.6167 31.0977 33.003 32.0304 33.003 33.003C33.003 33.9755 32.6167 34.9083 31.929 35.596C31.2413 36.2837 30.3085 36.67 29.336 36.67C28.3634 36.67 27.4307 36.2837 26.743 35.596C26.0553 34.9083 25.669 33.9755 25.669 33.003C25.669 30.9678 27.3008 29.336 29.336 29.336ZM0 0H5.99554L7.71903 3.667H34.8365C35.3228 3.667 35.7891 3.86017 36.133 4.20402C36.4768 4.54787 36.67 5.01423 36.67 5.5005C36.67 5.81219 36.5783 6.12389 36.45 6.41725L29.886 18.28C29.2627 19.3984 28.0525 20.1685 26.6774 20.1685H13.0178L11.3677 23.1571L11.3127 23.3771C11.3127 23.4987 11.361 23.6153 11.4469 23.7012C11.5329 23.7872 11.6495 23.8355 11.7711 23.8355H33.003V27.5025H11.001C10.0285 27.5025 9.09573 27.1162 8.40804 26.4285C7.72034 25.7408 7.334 24.808 7.334 23.8355C7.334 23.1938 7.49901 22.5887 7.77404 22.0753L10.2676 17.5833L3.667 3.667H0V0ZM11.001 29.336C11.9735 29.336 12.9063 29.7223 13.594 30.41C14.2817 31.0977 14.668 32.0304 14.668 33.003C14.668 33.9755 14.2817 34.9083 13.594 35.596C12.9063 36.2837 11.9735 36.67 11.001 36.67C10.0285 36.67 9.09573 36.2837 8.40804 35.596C7.72034 34.9083 7.334 33.9755 7.334 33.003C7.334 30.9678 8.96581 29.336 11.001 29.336ZM27.5025 16.5015L32.5996 7.334H9.42419L13.7512 16.5015H27.5025Z" fill="#01ABA2"/>
</svg>
