<svg width="38" height="38" viewBox="0 0 38 38" fill="none" xmlns="http://www.w3.org/2000/svg">
<path d="M34.125 13.4453C34.125 24.1094 18.3132 32.7412 17.6399 33.0977C17.4624 33.1931 17.264 33.2431 17.0625 33.2431C16.861 33.2431 16.6626 33.1931 16.4851 33.0977C15.8118 32.7412 0 24.1094 0 13.4453C0.00282253 10.9411 0.998857 8.54031 2.76959 6.76959C4.54031 4.99886 6.94113 4.00282 9.44531 4C12.5912 4 15.3456 5.35281 17.0625 7.63949C18.7794 5.35281 21.5338 4 24.6797 4C27.1839 4.00282 29.5847 4.99886 31.3554 6.76959C33.1261 8.54031 34.1222 10.9411 34.125 13.4453Z" fill="#01ABA2"/>
</svg>
