<svg width="32" height="30" viewBox="0 0 32 30" fill="none" xmlns="http://www.w3.org/2000/svg">
<path d="M16.1582 25.3708L15.9998 25.5292L15.8257 25.3708C8.30484 18.5467 3.33317 14.0342 3.33317 9.45833C3.33317 6.29167 5.70817 3.91667 8.87484 3.91667C11.3132 3.91667 13.6882 5.5 14.5273 7.65333H17.4723C18.3115 5.5 20.6865 3.91667 23.1248 3.91667C26.2915 3.91667 28.6665 6.29167 28.6665 9.45833C28.6665 14.0342 23.6948 18.5467 16.1582 25.3708ZM23.1248 0.75C20.3698 0.75 17.7257 2.0325 15.9998 4.04333C14.274 2.0325 11.6298 0.75 8.87484 0.75C3.99817 0.75 0.166504 4.56583 0.166504 9.45833C0.166504 15.4275 5.54984 20.32 13.704 27.7142L15.9998 29.8042L18.2957 27.7142C26.4498 20.32 31.8332 15.4275 31.8332 9.45833C31.8332 4.56583 28.0015 0.75 23.1248 0.75Z" fill="#051223"/>
</svg>
