<svg width="46" height="43" viewBox="0 0 46 43" fill="none" xmlns="http://www.w3.org/2000/svg">
<path d="M44.8507 19.5868L35.5953 27.4233L38.3678 39.0905C38.5146 39.7004 38.4727 40.3387 38.2475 40.9257C38.0223 41.5127 37.6237 42.0222 37.1017 42.3906C36.5796 42.759 35.9571 42.9699 35.3122 42.997C34.6672 43.0241 34.0283 42.8661 33.4754 42.5428L22.9867 36.3708L12.5205 42.5428C11.9676 42.8661 11.3287 43.0241 10.6837 42.997C10.0387 42.9699 9.41631 42.759 8.89424 42.3906C8.37216 42.0222 7.97361 41.5127 7.7484 40.9257C7.5232 40.3387 7.48133 39.7004 7.62805 39.0905L10.3965 27.4353L1.13901 19.5868C0.649377 19.1772 0.29532 18.6363 0.12124 18.0322C-0.0528401 17.4281 -0.039193 16.7875 0.16047 16.1909C0.360132 15.5942 0.736922 15.068 1.24359 14.6783C1.75026 14.2886 2.36424 14.0527 3.00856 14.0002L15.2109 12.9748L19.974 1.95275C20.2228 1.37441 20.6423 0.880387 21.1799 0.532901C21.7174 0.185416 22.3489 0 22.9949 0C23.6408 0 24.2723 0.185416 24.8099 0.532901C25.3474 0.880387 25.767 1.37441 26.0157 1.95275L30.7932 12.9748L42.9914 14.0002C43.6357 14.0527 44.2497 14.2886 44.7564 14.6783C45.2631 15.068 45.6399 15.5942 45.8395 16.1909C46.0392 16.7875 46.0528 17.4281 45.8788 18.0322C45.7047 18.6363 45.3506 19.1772 44.861 19.5868H44.8507Z" fill="#03CCA2"/>
</svg>
