<svg width="184" height="36" viewBox="0 0 184 36" fill="none" xmlns="http://www.w3.org/2000/svg">
<path d="M6.52344 35H1.13281C0.976562 35 0.898438 34.9219 0.898438 34.7656L0.992188 1.78906C0.992188 1.66406 1.05469 1.60156 1.17969 1.60156H16.5547C16.7109 1.60156 16.7891 1.66406 16.7891 1.78906V7.20312C16.7891 7.32812 16.7266 7.39062 16.6016 7.39062H6.75781V14.8438H16.6016C16.7266 14.8438 16.7891 14.9219 16.7891 15.0781L16.8359 20.5156C16.8359 20.6406 16.7578 20.7031 16.6016 20.7031H6.75781V34.7656C6.75781 34.9219 6.67969 35 6.52344 35ZM26.7734 35H21.3359C21.1797 35 21.1016 34.9219 21.1016 34.7656L21.1484 1.78906C21.1484 1.66406 21.2109 1.60156 21.3359 1.60156H26.7266C26.8516 1.60156 26.9141 1.66406 26.9141 1.78906L26.9609 34.7656C26.9609 34.9219 26.8984 35 26.7734 35ZM41.4219 35H36.0078C35.8672 35 35.7969 34.9219 35.7969 34.7656V7.39062H29.5625C29.4062 7.39062 29.3281 7.3125 29.3281 7.15625L29.375 1.78906C29.375 1.66406 29.4375 1.60156 29.5625 1.60156H47.7969C47.9688 1.60156 48.0547 1.66406 48.0547 1.78906V7.15625C48.0547 7.3125 47.9922 7.39062 47.8672 7.39062H41.5625L41.6094 34.7656C41.6094 34.9219 41.5469 35 41.4219 35Z" fill="#01ABA2"/>
<path d="M86.5528 35H62.7928V31.736L80.8408 4.568H63.3688V0.727998H86.0728V3.992L68.0247 31.16H86.5528V35ZM114.885 22.088C114.885 24.232 114.598 26.136 114.022 27.8C113.478 29.432 112.678 30.824 111.622 31.976C110.598 33.128 109.334 34.008 107.83 34.616C106.358 35.192 104.71 35.48 102.886 35.48C101.19 35.48 99.6215 35.192 98.1815 34.616C96.7415 34.008 95.4935 33.128 94.4375 31.976C93.3815 30.824 92.5495 29.432 91.9415 27.8C91.3655 26.136 91.0775 24.232 91.0775 22.088C91.0775 19.24 91.5575 16.84 92.5175 14.888C93.4775 12.904 94.8535 11.4 96.6455 10.376C98.4375 9.32 100.566 8.792 103.03 8.792C105.366 8.792 107.414 9.32 109.174 10.376C110.966 11.4 112.358 12.904 113.35 14.888C114.374 16.84 114.885 19.24 114.885 22.088ZM95.4455 22.088C95.4455 24.104 95.7015 25.864 96.2135 27.368C96.7575 28.84 97.5895 29.976 98.7095 30.776C99.8295 31.576 101.254 31.976 102.982 31.976C104.71 31.976 106.134 31.576 107.254 30.776C108.374 29.976 109.19 28.84 109.702 27.368C110.246 25.864 110.518 24.104 110.518 22.088C110.518 20.04 110.246 18.296 109.702 16.856C109.158 15.416 108.326 14.312 107.206 13.544C106.118 12.744 104.694 12.344 102.934 12.344C100.31 12.344 98.4055 13.208 97.2215 14.936C96.0375 16.664 95.4455 19.048 95.4455 22.088ZM133.964 8.792C137.036 8.792 139.356 9.544 140.924 11.048C142.492 12.52 143.276 14.92 143.276 18.248V35H139.1V18.536C139.1 16.456 138.636 14.904 137.708 13.88C136.78 12.856 135.324 12.344 133.34 12.344C130.492 12.344 128.524 13.144 127.436 14.744C126.348 16.344 125.804 18.648 125.804 21.656V35H121.58V9.272H124.988L125.612 12.776H125.852C126.428 11.88 127.132 11.144 127.964 10.568C128.828 9.96 129.772 9.512 130.796 9.224C131.82 8.936 132.876 8.792 133.964 8.792ZM161.188 8.792C163.396 8.792 165.284 9.272 166.852 10.232C168.452 11.192 169.668 12.552 170.5 14.312C171.364 16.04 171.796 18.072 171.796 20.408V22.952H154.18C154.244 25.864 154.98 28.088 156.388 29.624C157.828 31.128 159.828 31.88 162.388 31.88C164.02 31.88 165.46 31.736 166.708 31.448C167.988 31.128 169.3 30.68 170.644 30.104V33.8C169.332 34.376 168.036 34.792 166.756 35.048C165.476 35.336 163.956 35.48 162.196 35.48C159.764 35.48 157.604 34.984 155.716 33.992C153.86 33 152.404 31.528 151.348 29.576C150.324 27.592 149.812 25.176 149.812 22.328C149.812 19.512 150.276 17.096 151.204 15.08C152.164 13.064 153.492 11.512 155.188 10.424C156.916 9.336 158.916 8.792 161.188 8.792ZM161.14 12.248C159.124 12.248 157.524 12.904 156.34 14.216C155.188 15.496 154.5 17.288 154.276 19.592H167.38C167.38 18.12 167.156 16.84 166.708 15.752C166.26 14.664 165.572 13.816 164.644 13.208C163.748 12.568 162.58 12.248 161.14 12.248ZM177.722 32.408C177.722 31.224 178.01 30.392 178.586 29.912C179.162 29.432 179.85 29.192 180.65 29.192C181.482 29.192 182.186 29.432 182.762 29.912C183.37 30.392 183.674 31.224 183.674 32.408C183.674 33.56 183.37 34.392 182.762 34.904C182.186 35.416 181.482 35.672 180.65 35.672C179.85 35.672 179.162 35.416 178.586 34.904C178.01 34.392 177.722 33.56 177.722 32.408Z" fill="#051223"/>
</svg>
